<?xml version="1.0" standalone="no"?>
<!DOCTYPE svg PUBLIC "-//W3C//DTD SVG 20010904//EN"
 "http://www.w3.org/TR/2001/REC-SVG-20010904/DTD/svg10.dtd">
<svg version="1.0" xmlns="http://www.w3.org/2000/svg"
 width="200.000000pt" height="200.000000pt" viewBox="0 0 200.000000 200.000000"
 preserveAspectRatio="xMidYMid meet">
<metadata>
Created by potrace 1.16, written by Peter Selinger 2001-2019
</metadata>
<g transform="translate(0.000000,200.000000) scale(0.100000,-0.100000)"
fill="#000000" stroke="none">
<path d="M335 1776 c-40 -17 -95 -72 -111 -113 -21 -48 -20 -1278 0 -1327 19
-46 79 -101 125 -114 27 -9 216 -12 659 -12 l620 0 53 28 c43 22 59 38 81 81
l28 53 0 620 c0 447 -3 632 -12 660 -15 50 -79 115 -126 128 -60 16 -1279 13
-1317 -4z m1305 -84 c72 -35 70 -15 70 -692 0 -556 -1 -608 -18 -640 -35 -72
-15 -70 -692 -70 -677 0 -657 -2 -692 70 -17 32 -18 84 -18 640 0 556 1 608
18 640 35 72 15 70 692 70 556 0 608 -1 640 -18z"/>
</g>
</svg>
