<?xml version="1.0" standalone="no"?>
<!DOCTYPE svg PUBLIC "-//W3C//DTD SVG 20010904//EN"
 "http://www.w3.org/TR/2001/REC-SVG-20010904/DTD/svg10.dtd">
<svg version="1.0" xmlns="http://www.w3.org/2000/svg"
 width="225.000000pt" height="225.000000pt" viewBox="0 0 225.000000 225.000000"
 preserveAspectRatio="xMidYMid meet">

<g transform="translate(0.000000,225.000000) scale(0.100000,-0.100000)"
fill="#000000" stroke="none">
<path d="M523 2139 c-228 -38 -425 -211 -496 -434 -32 -104 -30 -276 7 -400
53 -178 167 -382 312 -555 101 -123 312 -320 456 -427 140 -106 306 -216 323
-216 12 0 158 96 270 176 195 142 436 367 547 512 127 167 228 356 274 510 21
71 26 113 28 200 2 194 -47 318 -179 451 -88 88 -141 122 -255 162 -63 22 -92
26 -185 26 -174 0 -310 -52 -432 -168 l-68 -64 -69 64 c-144 135 -342 195
-533 163z m250 -170 c135 -45 227 -132 302 -285 l48 -97 53 105 c104 203 246
298 443 298 139 0 247 -47 345 -149 33 -36 70 -88 89 -128 31 -65 32 -73 32
-193 0 -106 -4 -136 -24 -195 -114 -335 -411 -682 -828 -966 -56 -38 -106 -69
-111 -69 -5 0 -57 33 -115 74 -383 268 -659 573 -783 866 -120 286 -72 536
132 676 119 82 285 107 417 63z"/>
</g>
</svg>
