<?xml version="1.0" standalone="no"?>
<!DOCTYPE svg PUBLIC "-//W3C//DTD SVG 20010904//EN"
 "http://www.w3.org/TR/2001/REC-SVG-20010904/DTD/svg10.dtd">
<svg version="1.0" xmlns="http://www.w3.org/2000/svg"
 width="275.000000pt" height="183.000000pt" viewBox="0 0 275.000000 183.000000"
 preserveAspectRatio="xMidYMid meet">

<g transform="translate(0.000000,183.000000) scale(0.100000,-0.100000)"
fill="red" stroke="none">
<path d="M923 1506 c-127 -42 -217 -151 -244 -298 -21 -115 13 -247 96 -373
52 -79 208 -240 315 -325 91 -72 273 -200 285 -200 12 0 194 128 285 200 107
85 263 246 315 325 50 76 84 160 98 242 27 168 -63 348 -211 416 -40 19 -65
22 -162 22 -105 0 -120 -2 -170 -27 -30 -15 -77 -48 -104 -73 -27 -25 -50 -45
-51 -45 -1 0 -24 20 -51 45 -81 75 -138 98 -258 102 -67 2 -115 -2 -143 -11z"/>
</g>
</svg>
