<?xml version="1.0" standalone="no"?>
<!DOCTYPE svg PUBLIC "-//W3C//DTD SVG 20010904//EN"
 "http://www.w3.org/TR/2001/REC-SVG-20010904/DTD/svg10.dtd">
<svg version="1.0" xmlns="http://www.w3.org/2000/svg"
 width="200.000000pt" height="200.000000pt" viewBox="0 0 200.000000 200.000000"
 preserveAspectRatio="xMidYMid meet">
<metadata>
Created by potrace 1.16, written by Peter Selinger 2001-2019
</metadata>
<g transform="translate(0.000000,200.000000) scale(0.100000,-0.100000)"
fill="#000000" stroke="none">
<path d="M853 1855 c-198 -54 -365 -232 -404 -433 -16 -87 -7 -222 21 -297 30
-81 101 -186 158 -235 259 -221 652 -171 835 108 24 37 54 94 67 127 28 75 37
210 21 297 -40 203 -207 381 -408 433 -71 19 -221 18 -290 0z m252 -119 c221
-59 362 -271 326 -488 -24 -147 -108 -261 -239 -325 -75 -37 -78 -38 -192 -38
-114 0 -117 1 -192 38 -220 108 -306 364 -197 585 88 180 303 279 494 228z"/>
<path d="M980 1653 c-36 -13 -40 -34 -40 -205 l0 -167 93 -75 c90 -72 103 -80
139 -77 25 1 51 46 44 73 -3 13 -39 49 -81 82 l-75 59 0 136 c0 95 -4 142 -12
153 -15 19 -47 28 -68 21z"/>
<path d="M342 619 c-75 -10 -139 -52 -180 -119 -31 -51 -33 -60 -30 -131 2
-63 8 -83 33 -125 36 -57 99 -100 170 -113 67 -13 1242 -14 1320 -1 124 20
206 106 213 225 7 113 -38 194 -135 241 l-58 29 -640 0 c-352 0 -664 -3 -693
-6z m1345 -139 c82 -50 82 -160 0 -210 -31 -19 -55 -20 -685 -20 -721 0 -693
-2 -732 63 -36 59 -18 130 43 167 31 19 55 20 687 20 632 0 656 -1 687 -20z"/>
<path d="M335 415 c-14 -13 -25 -31 -25 -40 0 -9 11 -27 25 -40 24 -25 25 -25
230 -25 192 0 206 1 225 20 11 11 20 31 20 45 0 14 -9 34 -20 45 -19 19 -33
20 -225 20 -205 0 -206 0 -230 -25z"/>
</g>
</svg>
